<svg width="50" height="50" viewBox="0 0 50 50" fill="none" xmlns="http://www.w3.org/2000/svg">
<path d="M44.25 26.75V23.25H38.8775C38.5625 20.765 37.5825 18.4025 36.0425 16.425L39.875 12.6275L37.3725 10.125L33.575 13.9575C31.5975 12.4175 29.235 11.4375 26.75 11.1225V5.75H23.25V11.1225C20.765 11.4375 18.4025 12.4175 16.425 13.9575L12.6275 10.125L10.125 12.6275L13.9575 16.425C12.4175 18.4025 11.4375 20.765 11.1225 23.25H5.75V26.75H11.1225C11.4375 29.235 12.4175 31.5975 13.9575 33.575L10.125 37.3725L12.6275 39.875L16.425 36.0425C18.4025 37.5825 20.765 38.5625 23.25 38.8775V44.25H26.75V38.8775C29.235 38.5625 31.5975 37.5825 33.575 36.0425L37.3725 39.875L39.875 37.3725L36.0425 33.575C37.5825 31.5975 38.5625 29.235 38.8775 26.75H44.25ZM25 18C23.1435 18 21.363 18.7375 20.0503 20.0503C18.7375 21.363 18 23.1435 18 25H14.5C14.5 22.2152 15.6062 19.5445 17.5754 17.5754C19.5445 15.6062 22.2152 14.5 25 14.5V18Z" fill="#E84949"/>
</svg>
