<svg width="337" height="330" viewBox="0 0 337 330" fill="none" xmlns="http://www.w3.org/2000/svg">
<path d="M106.333 172.218L113.776 126.205L161.536 100.09L182.624 123.096L135.485 176.57L106.333 172.218Z" fill="white"/>
<path d="M252.667 166V149.833H227.595C226.125 138.355 221.552 127.442 214.365 118.308L232.25 100.767L220.572 89.2083L202.85 106.911C193.622 99.7975 182.597 95.2708 171 93.8158V69H154.667V93.8158C143.07 95.2708 132.045 99.7975 122.817 106.911L105.095 89.2083L93.4167 100.767L111.302 118.308C104.115 127.442 99.5417 138.355 98.0717 149.833H73V166H98.0717C99.5417 177.478 104.115 188.391 111.302 197.525L93.4167 215.066L105.095 226.625L122.817 208.923C132.045 216.036 143.07 220.562 154.667 222.018V246.833H171V222.018C182.597 220.562 193.622 216.036 202.85 208.923L220.572 226.625L232.25 215.066L214.365 197.525C221.552 188.391 226.125 177.478 227.595 166H252.667ZM162.833 125.583C154.17 125.583 145.861 128.99 139.735 135.054C133.608 141.117 130.167 149.341 130.167 157.917H113.833C113.833 145.054 118.996 132.718 128.185 123.622C137.374 114.526 149.838 109.417 162.833 109.417V125.583Z" fill="black"/>
</svg>
