<svg width="42" height="42" viewBox="0 0 42 42" fill="none" xmlns="http://www.w3.org/2000/svg">
<path d="M21 3.5C18.7019 3.5 16.4262 3.95265 14.303 4.83211C12.1798 5.71157 10.2507 7.00061 8.62563 8.62563C5.34374 11.9075 3.5 16.3587 3.5 21C3.5 25.6413 5.34374 30.0925 8.62563 33.3744C10.2507 34.9994 12.1798 36.2884 14.303 37.1679C16.4262 38.0474 18.7019 38.5 21 38.5C25.6413 38.5 30.0925 36.6563 33.3744 33.3744C36.6563 30.0925 38.5 25.6413 38.5 21C38.5 18.7019 38.0474 16.4262 37.1679 14.303C36.2884 12.1798 34.9994 10.2507 33.3744 8.62563C31.7493 7.00061 29.8202 5.71157 27.697 4.83211C25.5738 3.95265 23.2981 3.5 21 3.5ZM28.35 28.35L19.25 22.75V12.25H21.875V21.35L29.75 26.075L28.35 28.35Z" fill="white"/>
</svg>
