<svg width="337" height="330" viewBox="0 0 337 330" fill="none" xmlns="http://www.w3.org/2000/svg">
<path d="M54.7681 74.1653L141.308 105.712L201.309 31.2542L208.145 112.363L297.612 123.356L212.495 163.982L250.971 262.356L181.276 217.478L137.361 298.489L122.069 215.342L41.5275 236.536L100.534 174.854L54.7681 74.1653Z" fill="#FD5757"/>
<path d="M89.2919 100.848L143.522 122.975L182.274 74.7094L185.618 128.368L241.941 136.966L187.745 162.517L210.847 228.049L167.406 197.372L138.725 250.206L130.071 195.075L78.9943 207.863L116.966 168.019L89.2919 100.848Z" fill="#FBFF30"/>
<path d="M106.333 172.218L113.776 126.205L161.536 100.09L182.624 123.096L135.485 176.57L106.333 172.218Z" fill="white"/>
<path d="M252.667 166V149.833H227.595C226.125 138.355 221.552 127.442 214.365 118.308L232.25 100.767L220.572 89.2083L202.85 106.911C193.622 99.7975 182.597 95.2708 171 93.8158V69H154.667V93.8158C143.07 95.2708 132.045 99.7975 122.817 106.911L105.095 89.2083L93.4167 100.767L111.302 118.308C104.115 127.442 99.5417 138.355 98.0717 149.833H73V166H98.0717C99.5417 177.478 104.115 188.391 111.302 197.525L93.4167 215.066L105.095 226.625L122.817 208.923C132.045 216.036 143.07 220.563 154.667 222.018V246.833H171V222.018C182.597 220.563 193.622 216.036 202.85 208.923L220.572 226.625L232.25 215.066L214.365 197.525C221.552 188.391 226.125 177.478 227.595 166H252.667ZM162.833 125.583C154.17 125.583 145.861 128.99 139.735 135.054C133.608 141.117 130.167 149.341 130.167 157.917H113.833C113.833 145.054 118.996 132.718 128.185 123.622C137.374 114.526 149.838 109.417 162.833 109.417V125.583Z" fill="black"/>
</svg>
