<svg width="42" height="42" viewBox="0 0 42 42" fill="none" xmlns="http://www.w3.org/2000/svg">
<path d="M40.25 22.75V19.25H34.8775C34.5625 16.765 33.5825 14.4025 32.0425 12.425L35.875 8.6275L33.3725 6.125L29.575 9.9575C27.5975 8.4175 25.235 7.4375 22.75 7.1225V1.75H19.25V7.1225C16.765 7.4375 14.4025 8.4175 12.425 9.9575L8.6275 6.125L6.125 8.6275L9.9575 12.425C8.4175 14.4025 7.4375 16.765 7.1225 19.25H1.75V22.75H7.1225C7.4375 25.235 8.4175 27.5975 9.9575 29.575L6.125 33.3725L8.6275 35.875L12.425 32.0425C14.4025 33.5825 16.765 34.5625 19.25 34.8775V40.25H22.75V34.8775C25.235 34.5625 27.5975 33.5825 29.575 32.0425L33.3725 35.875L35.875 33.3725L32.0425 29.575C33.5825 27.5975 34.5625 25.235 34.8775 22.75H40.25ZM21 14C19.1435 14 17.363 14.7375 16.0503 16.0503C14.7375 17.363 14 19.1435 14 21H10.5C10.5 18.2152 11.6062 15.5445 13.5754 13.5754C15.5445 11.6062 18.2152 10.5 21 10.5V14Z" fill="white"/>
</svg>
